<svg id="Layer_1" data-name="Layer 1" xmlns="http://www.w3.org/2000/svg" viewBox="0 0 128 128"><defs><style>.cls-1{fill:#fff;}.cls-2{fill:#dd2c2c;}.cls-3{fill:#131313;}</style></defs><title>logo_hedik_128x128</title><circle class="cls-1" cx="64" cy="64" r="64"/><circle class="cls-2" cx="83.06" cy="35.4" r="9.53"/><path class="cls-3" d="M52.09,25.87H37.78a2.39,2.39,0,0,0-2.38,2.38v71.5a2.39,2.39,0,0,0,2.39,2.38H52.08a2.39,2.39,0,0,0,2.39-2.38V28.25A2.39,2.39,0,0,0,52.09,25.87Z"/><path class="cls-3" d="M92.6,78.3A23.83,23.83,0,0,0,68.77,54.47h0V73.53h-.14v0l.14,0a4.77,4.77,0,0,1,4.76,4.77Z"/><path class="cls-3" d="M68.77,54.47H35.4V73.53h10A23.85,23.85,0,0,1,68.77,54.47Z"/><path class="cls-3" d="M68.77,54.47A23.85,23.85,0,0,0,45.41,73.53H68.77Z"/><polygon class="cls-3" points="73.53 78.3 73.53 78.3 73.53 78.3 73.53 78.3 73.53 78.3"/><path class="cls-3" d="M73.53,78.3h0V99.75a2.39,2.39,0,0,0,2.39,2.38H90.21a2.39,2.39,0,0,0,2.39-2.38V78.3H73.53Z"/></svg>