<svg id="Layer_1" data-name="Layer 1" xmlns="http://www.w3.org/2000/svg" viewBox="0 0 500 500"><defs><style>.cls-1{fill:#dd2c2c;}.cls-2{fill:#131313;}</style></defs><title>Artboard 2 copy 4</title><circle class="cls-1" cx="375" cy="62.5" r="62.5"/><path class="cls-2" d="M437.5,343.75A156.26,156.26,0,0,0,281.25,187.5H187.5V15.62A15.63,15.63,0,0,0,171.89,0H78.11A15.63,15.63,0,0,0,62.5,15.62V484.38A15.63,15.63,0,0,0,78.12,500h93.76a15.63,15.63,0,0,0,15.62-15.62V312.5h92.83l0,.09c.31,0,.59-.09.89-.09a31.29,31.29,0,0,1,31.25,31.25h0V484.38A15.62,15.62,0,0,0,328.12,500h93.75a15.63,15.63,0,0,0,15.63-15.62V343.77h0Z"/></svg>